<mxfile host="app.diagrams.net" modified="2021-12-03T10:06:51.790Z" agent="5.0 (Windows)" etag="82UwQ6gpkGjZyJ9mYKjb" version="14.9.9" type="github">
  <diagram name="Page-1" id="e7e014a7-5840-1c2e-5031-d8a46d1fe8dd">
    <mxGraphModel dx="1376" dy="1975" grid="1" gridSize="10" guides="1" tooltips="1" connect="1" arrows="1" fold="1" page="1" pageScale="1" pageWidth="1169" pageHeight="826" background="none" math="0" shadow="0">
      <root>
        <mxCell id="0" />
        <mxCell id="1" parent="0" />
        <mxCell id="3" value="Zentrale" style="swimlane;whiteSpace=wrap;startSize=23;" parent="1" vertex="1">
          <mxGeometry x="444.5" y="60" width="275.5" height="960" as="geometry" />
        </mxCell>
        <mxCell id="17" value="" style="endArrow=open;strokeColor=#FF0000;endFill=1;rounded=0" parent="3" target="16" edge="1">
          <mxGeometry relative="1" as="geometry">
            <mxPoint x="80.5" y="160" as="sourcePoint" />
          </mxGeometry>
        </mxCell>
        <mxCell id="19" value="" style="endArrow=open;strokeColor=#FF0000;endFill=1;rounded=0" parent="3" target="18" edge="1">
          <mxGeometry relative="1" as="geometry">
            <mxPoint x="80.5" y="270" as="sourcePoint" />
          </mxGeometry>
        </mxCell>
        <mxCell id="23" value="no" style="edgeStyle=elbowEdgeStyle;elbow=horizontal;align=left;verticalAlign=top;endArrow=open;endSize=8;strokeColor=#FF0000;endFill=1;rounded=0" parent="3" target="30" edge="1">
          <mxGeometry x="-1" relative="1" as="geometry">
            <mxPoint x="190" y="305" as="targetPoint" />
            <mxPoint x="195.5" y="265" as="sourcePoint" />
          </mxGeometry>
        </mxCell>
        <mxCell id="24" value="" style="endArrow=open;strokeColor=#FF0000;endFill=1;rounded=0" parent="3" target="21" edge="1">
          <mxGeometry relative="1" as="geometry">
            <mxPoint x="135.5" y="245" as="sourcePoint" />
          </mxGeometry>
        </mxCell>
        <mxCell id="32" value="" style="endArrow=none;strokeColor=#FF0000;endFill=0;rounded=0;dashed=1" parent="3" target="31" edge="1">
          <mxGeometry relative="1" as="geometry">
            <mxPoint x="92.62121212121201" y="375" as="sourcePoint" />
          </mxGeometry>
        </mxCell>
        <mxCell id="-4q_N20zP12-D0FSzLOO-51" value="Auftragsdaten erfassen" style="rounded=1;whiteSpace=wrap;html=1;" vertex="1" parent="3">
          <mxGeometry x="35" y="88" width="200" height="40" as="geometry" />
        </mxCell>
        <mxCell id="-4q_N20zP12-D0FSzLOO-53" value="Auftrag an Kurier weiterleiten" style="rounded=1;whiteSpace=wrap;html=1;" vertex="1" parent="3">
          <mxGeometry x="35" y="172" width="200" height="38" as="geometry" />
        </mxCell>
        <mxCell id="-4q_N20zP12-D0FSzLOO-57" value="" style="endArrow=classic;html=1;exitX=0.5;exitY=1;exitDx=0;exitDy=0;entryX=0.5;entryY=0;entryDx=0;entryDy=0;" edge="1" parent="3" source="-4q_N20zP12-D0FSzLOO-51" target="-4q_N20zP12-D0FSzLOO-53">
          <mxGeometry width="50" height="50" relative="1" as="geometry">
            <mxPoint x="115.5" y="332" as="sourcePoint" />
            <mxPoint x="165.5" y="282" as="targetPoint" />
          </mxGeometry>
        </mxCell>
        <mxCell id="-4q_N20zP12-D0FSzLOO-64" value="Datenabgleich des Auftrags&lt;br&gt; mit den Daten des Kuriers" style="rounded=1;whiteSpace=wrap;html=1;" vertex="1" parent="3">
          <mxGeometry x="30" y="377" width="210" height="38" as="geometry" />
        </mxCell>
        <mxCell id="-4q_N20zP12-D0FSzLOO-72" value="" style="line;strokeWidth=4;fillColor=none;align=left;verticalAlign=middle;spacingTop=-1;spacingLeft=3;spacingRight=3;rotatable=0;labelPosition=right;points=[];portConstraint=eastwest;" vertex="1" parent="3">
          <mxGeometry x="140" y="322" width="270" height="8" as="geometry" />
        </mxCell>
        <mxCell id="-4q_N20zP12-D0FSzLOO-67" value="" style="endArrow=classic;html=1;entryX=0.45;entryY=0.053;entryDx=0;entryDy=0;entryPerimeter=0;exitX=0.02;exitY=1;exitDx=0;exitDy=0;exitPerimeter=0;" edge="1" parent="3" source="-4q_N20zP12-D0FSzLOO-72" target="-4q_N20zP12-D0FSzLOO-64">
          <mxGeometry width="50" height="50" relative="1" as="geometry">
            <mxPoint x="135.5" y="322" as="sourcePoint" />
            <mxPoint x="115.5" y="372" as="targetPoint" />
          </mxGeometry>
        </mxCell>
        <mxCell id="-4q_N20zP12-D0FSzLOO-92" value="Rechnung erstellen" style="rounded=1;whiteSpace=wrap;html=1;strokeWidth=1;" vertex="1" parent="3">
          <mxGeometry x="150" y="790" width="280" height="36" as="geometry" />
        </mxCell>
        <mxCell id="4" value="Kurier" style="swimlane;whiteSpace=wrap" parent="1" vertex="1">
          <mxGeometry x="720" y="60" width="284.5" height="960" as="geometry" />
        </mxCell>
        <mxCell id="-4q_N20zP12-D0FSzLOO-59" value="Abolung der Sendung" style="rounded=1;whiteSpace=wrap;html=1;" vertex="1" parent="4">
          <mxGeometry x="40" y="172" width="200" height="40" as="geometry" />
        </mxCell>
        <mxCell id="-4q_N20zP12-D0FSzLOO-61" value="Erfassung und Übermittlung&lt;br&gt; der Auftragsdaten an Zentrale" style="rounded=1;whiteSpace=wrap;html=1;" vertex="1" parent="4">
          <mxGeometry x="40" y="237" width="200" height="48" as="geometry" />
        </mxCell>
        <mxCell id="-4q_N20zP12-D0FSzLOO-63" value="Ausführung der Kurierfahrt" style="rounded=1;whiteSpace=wrap;html=1;" vertex="1" parent="4">
          <mxGeometry x="40" y="376" width="200" height="38" as="geometry" />
        </mxCell>
        <mxCell id="-4q_N20zP12-D0FSzLOO-70" value="Auslieferung der Sendung" style="rounded=1;whiteSpace=wrap;html=1;" vertex="1" parent="4">
          <mxGeometry x="40" y="442" width="200" height="38" as="geometry" />
        </mxCell>
        <mxCell id="-4q_N20zP12-D0FSzLOO-71" value="" style="endArrow=classic;html=1;exitX=0.5;exitY=1;exitDx=0;exitDy=0;" edge="1" parent="4" source="-4q_N20zP12-D0FSzLOO-63" target="-4q_N20zP12-D0FSzLOO-70">
          <mxGeometry width="50" height="50" relative="1" as="geometry">
            <mxPoint x="65.5" y="482" as="sourcePoint" />
            <mxPoint x="115.5" y="432" as="targetPoint" />
          </mxGeometry>
        </mxCell>
        <mxCell id="-4q_N20zP12-D0FSzLOO-74" value="" style="rhombus;whiteSpace=wrap;html=1;strokeWidth=4;" vertex="1" parent="4">
          <mxGeometry x="116.13" y="500" width="52.25" height="50" as="geometry" />
        </mxCell>
        <mxCell id="-4q_N20zP12-D0FSzLOO-78" value="" style="endArrow=classic;html=1;strokeColor=#000000;exitX=0.5;exitY=1;exitDx=0;exitDy=0;entryX=0.5;entryY=0;entryDx=0;entryDy=0;" edge="1" parent="4" source="-4q_N20zP12-D0FSzLOO-70" target="-4q_N20zP12-D0FSzLOO-74">
          <mxGeometry width="50" height="50" relative="1" as="geometry">
            <mxPoint x="70" y="450" as="sourcePoint" />
            <mxPoint x="120" y="400" as="targetPoint" />
          </mxGeometry>
        </mxCell>
        <mxCell id="-4q_N20zP12-D0FSzLOO-80" value="[ Persönliche Übergabe ]" style="html=1;verticalAlign=bottom;endArrow=block;strokeColor=#000000;" edge="1" parent="4">
          <mxGeometry width="80" relative="1" as="geometry">
            <mxPoint x="168.38" y="524.5" as="sourcePoint" />
            <mxPoint x="330" y="525" as="targetPoint" />
          </mxGeometry>
        </mxCell>
        <mxCell id="-4q_N20zP12-D0FSzLOO-81" value="&lt;div&gt;Abschluss der Kurierfahrt melden&lt;/div&gt;&lt;div&gt;&lt;br&gt;&lt;/div&gt;" style="rounded=1;whiteSpace=wrap;html=1;strokeWidth=1;" vertex="1" parent="4">
          <mxGeometry x="42.26" y="690" width="200" height="30" as="geometry" />
        </mxCell>
        <mxCell id="-4q_N20zP12-D0FSzLOO-83" value="" style="rhombus;whiteSpace=wrap;html=1;strokeWidth=4;" vertex="1" parent="4">
          <mxGeometry x="116.13" y="610" width="52.25" height="50" as="geometry" />
        </mxCell>
        <mxCell id="-4q_N20zP12-D0FSzLOO-85" value="[keine pers. Übergabe ]" style="html=1;verticalAlign=bottom;endArrow=block;strokeColor=#000000;exitX=0.5;exitY=1;exitDx=0;exitDy=0;entryX=0.5;entryY=0;entryDx=0;entryDy=0;" edge="1" parent="4" source="-4q_N20zP12-D0FSzLOO-74" target="-4q_N20zP12-D0FSzLOO-83">
          <mxGeometry width="80" relative="1" as="geometry">
            <mxPoint x="30" y="508" as="sourcePoint" />
            <mxPoint x="110" y="508" as="targetPoint" />
          </mxGeometry>
        </mxCell>
        <mxCell id="-4q_N20zP12-D0FSzLOO-88" value="" style="endArrow=classic;html=1;strokeColor=#000000;entryX=0.5;entryY=0;entryDx=0;entryDy=0;" edge="1" parent="4" source="-4q_N20zP12-D0FSzLOO-83" target="-4q_N20zP12-D0FSzLOO-81">
          <mxGeometry width="50" height="50" relative="1" as="geometry">
            <mxPoint x="40" y="450" as="sourcePoint" />
            <mxPoint x="90" y="400" as="targetPoint" />
          </mxGeometry>
        </mxCell>
        <mxCell id="-4q_N20zP12-D0FSzLOO-91" value="" style="endArrow=classic;html=1;strokeColor=#000000;entryX=0.987;entryY=0.125;entryDx=0;entryDy=0;entryPerimeter=0;" edge="1" parent="4" target="-4q_N20zP12-D0FSzLOO-89">
          <mxGeometry width="50" height="50" relative="1" as="geometry">
            <mxPoint x="141" y="720" as="sourcePoint" />
            <mxPoint x="141.75000000000023" y="740" as="targetPoint" />
          </mxGeometry>
        </mxCell>
        <mxCell id="-4q_N20zP12-D0FSzLOO-94" value="" style="ellipse;html=1;shape=endState;fillColor=#000000;strokeColor=#ff0000;" vertex="1" parent="4">
          <mxGeometry y="920" width="30" height="30" as="geometry" />
        </mxCell>
        <mxCell id="20" value="" style="endArrow=open;strokeColor=#FF0000;endFill=1;rounded=0" parent="1" target="18" edge="1">
          <mxGeometry relative="1" as="geometry">
            <mxPoint x="340" y="478" as="sourcePoint" />
          </mxGeometry>
        </mxCell>
        <mxCell id="-4q_N20zP12-D0FSzLOO-41" value="Empfänger" style="swimlane;whiteSpace=wrap" vertex="1" parent="1">
          <mxGeometry x="1004.5" y="60" width="295.5" height="960" as="geometry" />
        </mxCell>
        <mxCell id="-4q_N20zP12-D0FSzLOO-75" value="Empfang quittieren" style="rounded=1;whiteSpace=wrap;html=1;strokeWidth=1;" vertex="1" parent="-4q_N20zP12-D0FSzLOO-41">
          <mxGeometry x="40" y="500" width="200" height="40" as="geometry" />
        </mxCell>
        <mxCell id="-4q_N20zP12-D0FSzLOO-76" style="edgeStyle=orthogonalEdgeStyle;rounded=0;orthogonalLoop=1;jettySize=auto;html=1;exitX=0.5;exitY=1;exitDx=0;exitDy=0;strokeColor=#000000;" edge="1" parent="-4q_N20zP12-D0FSzLOO-41" source="-4q_N20zP12-D0FSzLOO-75" target="-4q_N20zP12-D0FSzLOO-75">
          <mxGeometry relative="1" as="geometry" />
        </mxCell>
        <mxCell id="-4q_N20zP12-D0FSzLOO-96" value="" style="rounded=1;whiteSpace=wrap;html=1;strokeWidth=1;glass=1;fillColor=none;" vertex="1" parent="-4q_N20zP12-D0FSzLOO-41">
          <mxGeometry x="-904.5" y="-70" width="1280" height="1100" as="geometry" />
        </mxCell>
        <mxCell id="-4q_N20zP12-D0FSzLOO-49" style="edgeStyle=orthogonalEdgeStyle;rounded=0;orthogonalLoop=1;jettySize=auto;html=1;exitX=1;exitY=0.5;exitDx=0;exitDy=0;entryX=0;entryY=0.5;entryDx=0;entryDy=0;" edge="1" parent="1" source="-4q_N20zP12-D0FSzLOO-47" target="-4q_N20zP12-D0FSzLOO-51">
          <mxGeometry relative="1" as="geometry">
            <mxPoint x="480" y="259" as="targetPoint" />
          </mxGeometry>
        </mxCell>
        <mxCell id="-4q_N20zP12-D0FSzLOO-60" value="" style="endArrow=classic;html=1;entryX=0;entryY=0.5;entryDx=0;entryDy=0;exitX=1;exitY=0.5;exitDx=0;exitDy=0;" edge="1" parent="1" source="-4q_N20zP12-D0FSzLOO-53" target="-4q_N20zP12-D0FSzLOO-59">
          <mxGeometry width="50" height="50" relative="1" as="geometry">
            <mxPoint x="580" y="340" as="sourcePoint" />
            <mxPoint x="840" y="560" as="targetPoint" />
          </mxGeometry>
        </mxCell>
        <mxCell id="-4q_N20zP12-D0FSzLOO-62" value="" style="endArrow=classic;html=1;exitX=0.5;exitY=1;exitDx=0;exitDy=0;" edge="1" parent="1" source="-4q_N20zP12-D0FSzLOO-59">
          <mxGeometry width="50" height="50" relative="1" as="geometry">
            <mxPoint x="790" y="610" as="sourcePoint" />
            <mxPoint x="860" y="300" as="targetPoint" />
          </mxGeometry>
        </mxCell>
        <mxCell id="-4q_N20zP12-D0FSzLOO-66" value="" style="endArrow=classic;html=1;exitX=0.5;exitY=1;exitDx=0;exitDy=0;entryX=0.494;entryY=0.5;entryDx=0;entryDy=0;entryPerimeter=0;" edge="1" parent="1" source="-4q_N20zP12-D0FSzLOO-61" target="-4q_N20zP12-D0FSzLOO-72">
          <mxGeometry width="50" height="50" relative="1" as="geometry">
            <mxPoint x="790" y="610" as="sourcePoint" />
            <mxPoint x="720" y="450" as="targetPoint" />
          </mxGeometry>
        </mxCell>
        <mxCell id="-4q_N20zP12-D0FSzLOO-68" value="" style="endArrow=classic;html=1;exitX=0.965;exitY=0.75;exitDx=0;exitDy=0;exitPerimeter=0;entryX=0.465;entryY=-0.026;entryDx=0;entryDy=0;entryPerimeter=0;" edge="1" parent="1" source="-4q_N20zP12-D0FSzLOO-72" target="-4q_N20zP12-D0FSzLOO-63">
          <mxGeometry width="50" height="50" relative="1" as="geometry">
            <mxPoint x="860" y="451" as="sourcePoint" />
            <mxPoint x="860" y="511" as="targetPoint" />
          </mxGeometry>
        </mxCell>
        <mxCell id="-4q_N20zP12-D0FSzLOO-86" value="" style="endArrow=classic;html=1;strokeColor=#000000;exitX=0.5;exitY=1;exitDx=0;exitDy=0;entryX=1;entryY=0.5;entryDx=0;entryDy=0;" edge="1" parent="1" source="-4q_N20zP12-D0FSzLOO-75" target="-4q_N20zP12-D0FSzLOO-83">
          <mxGeometry width="50" height="50" relative="1" as="geometry">
            <mxPoint x="760" y="510" as="sourcePoint" />
            <mxPoint x="1145" y="680" as="targetPoint" />
            <Array as="points">
              <mxPoint x="1145" y="675" />
            </Array>
          </mxGeometry>
        </mxCell>
        <mxCell id="-4q_N20zP12-D0FSzLOO-89" value="" style="line;strokeWidth=4;fillColor=none;align=left;verticalAlign=middle;spacingTop=-1;spacingLeft=3;spacingRight=3;rotatable=0;labelPosition=right;points=[];portConstraint=eastwest;" vertex="1" parent="1">
          <mxGeometry x="594.5" y="799" width="270" height="8" as="geometry" />
        </mxCell>
        <mxCell id="-4q_N20zP12-D0FSzLOO-90" value="" style="endArrow=classic;html=1;strokeColor=#000000;exitX=0.469;exitY=1.026;exitDx=0;exitDy=0;exitPerimeter=0;entryX=0.009;entryY=0.375;entryDx=0;entryDy=0;entryPerimeter=0;" edge="1" parent="1" source="-4q_N20zP12-D0FSzLOO-64" target="-4q_N20zP12-D0FSzLOO-89">
          <mxGeometry width="50" height="50" relative="1" as="geometry">
            <mxPoint x="760" y="510" as="sourcePoint" />
            <mxPoint x="810" y="460" as="targetPoint" />
          </mxGeometry>
        </mxCell>
        <mxCell id="-4q_N20zP12-D0FSzLOO-93" value="" style="endArrow=classic;html=1;strokeColor=#000000;" edge="1" parent="1">
          <mxGeometry width="50" height="50" relative="1" as="geometry">
            <mxPoint x="742.2572725295759" y="800.9978253305496" as="sourcePoint" />
            <mxPoint x="742" y="850" as="targetPoint" />
          </mxGeometry>
        </mxCell>
        <mxCell id="-4q_N20zP12-D0FSzLOO-95" value="" style="endArrow=classic;html=1;strokeColor=#000000;entryX=0.5;entryY=0;entryDx=0;entryDy=0;" edge="1" parent="1" target="-4q_N20zP12-D0FSzLOO-94">
          <mxGeometry width="50" height="50" relative="1" as="geometry">
            <mxPoint x="735" y="890" as="sourcePoint" />
            <mxPoint x="810" y="460" as="targetPoint" />
          </mxGeometry>
        </mxCell>
        <mxCell id="2" value="Auftraggeber" style="swimlane;whiteSpace=wrap" parent="1" vertex="1">
          <mxGeometry x="144.5" y="60" width="300" height="960" as="geometry" />
        </mxCell>
        <mxCell id="5" value="" style="ellipse;shape=startState;fillColor=#000000;strokeColor=#ff0000;" parent="2" vertex="1">
          <mxGeometry x="125.5" y="40" width="30" height="30" as="geometry" />
        </mxCell>
        <mxCell id="9" value="" style="endArrow=open;strokeColor=#FF0000;endFill=1;rounded=0" parent="2" target="8" edge="1">
          <mxGeometry relative="1" as="geometry">
            <mxPoint x="120.5" y="160" as="sourcePoint" />
          </mxGeometry>
        </mxCell>
        <mxCell id="11" value="" style="endArrow=open;strokeColor=#FF0000;endFill=1;rounded=0" parent="2" target="10" edge="1">
          <mxGeometry relative="1" as="geometry">
            <mxPoint x="120.5" y="270" as="sourcePoint" />
          </mxGeometry>
        </mxCell>
        <mxCell id="12" value="" style="edgeStyle=elbowEdgeStyle;elbow=horizontal;strokeColor=#FF0000;endArrow=open;endFill=1;rounded=0" parent="2" source="10" edge="1">
          <mxGeometry width="100" height="100" relative="1" as="geometry">
            <mxPoint x="160" y="290" as="sourcePoint" />
            <mxPoint x="65.5" y="135" as="targetPoint" />
            <Array as="points">
              <mxPoint x="30" y="250" />
            </Array>
          </mxGeometry>
        </mxCell>
        <mxCell id="-4q_N20zP12-D0FSzLOO-47" value="Auftrag erteilen" style="rounded=1;whiteSpace=wrap;html=1;" vertex="1" parent="2">
          <mxGeometry x="45.5" y="89" width="190" height="38" as="geometry" />
        </mxCell>
        <mxCell id="-4q_N20zP12-D0FSzLOO-97" value="" style="endArrow=classic;html=1;strokeColor=#000000;exitX=0.5;exitY=1;exitDx=0;exitDy=0;" edge="1" parent="2" source="5" target="-4q_N20zP12-D0FSzLOO-47">
          <mxGeometry width="50" height="50" relative="1" as="geometry">
            <mxPoint x="185.5" y="90" as="sourcePoint" />
            <mxPoint x="235.5" y="40" as="targetPoint" />
          </mxGeometry>
        </mxCell>
      </root>
    </mxGraphModel>
  </diagram>
</mxfile>
